# xmcd
#
# Track frame offsets:
# 150
# 26745
# 51624
# 78821
# 127421
# 166362
# 189849
# 213777
# 273583
#
# Disc length: 3946 seconds
#
#
# Revision: 0
# Processed by: cddbd v1.4PL0 Copyright (c) Steve Scherf et al.
# Submitted via: FreeRIP 2.21 
#
DISCID=7f0f6809
DTITLE=Paulito - Sofocandote
DYEAR=2003
DGENRE=Salsa
TTITLE0=Sofocacion
TTITLE1=El  Cacharrero
TTITLE2=Amiga no
TTITLE3=Te siento
TTITLE4=Popourrit del Benny
TTITLE5=Ana Elena
TTITLE6=Se lo busco
TTITLE7=Cancion al corazon
TTITLE8=Testamento Musical
EXTD=
EXTT0=
EXTT1=
EXTT2=
EXTT3=
EXTT4=
EXTT5=
EXTT6=
EXTT7=
EXTT8=
PLAYORDER=
